<?xml version="1.0" encoding="UTF-8" standalone="no"?>
<svg fill="none" viewBox="0 0 54 33" version="1.1" id="svg2" sodipodi:docname="logo.svg" inkscape:version="1.3 (1:1.3+202307231459+0e150ed6c4)" xmlns:inkscape="http://www.inkscape.org/namespaces/inkscape" xmlns:sodipodi="http://sodipodi.sourceforge.net/DTD/sodipodi-0.dtd" xmlns:xlink="http://www.w3.org/1999/xlink" xmlns="http://www.w3.org/2000/svg" xmlns:svg="http://www.w3.org/2000/svg">
  <sodipodi:namedview id="namedview2" pagecolor="#ffffff" bordercolor="#000000" borderopacity="0.25" inkscape:showpageshadow="2" inkscape:pageopacity="0.0" inkscape:pagecheckerboard="0" inkscape:deskcolor="#d1d1d1" inkscape:zoom="11.313709" inkscape:cx="1.1932426" inkscape:cy="22.936775" inkscape:window-width="1908" inkscape:window-height="1033" inkscape:window-x="5" inkscape:window-y="40" inkscape:window-maximized="1" inkscape:current-layer="svg2" showgrid="false" />
  <g clip-path="url(#prefix__clip0)" id="g1" transform="matrix(0.58902411,0,0,0.58902411,10.345495,7.038301)">
    <path fill="#38bdf8" fill-rule="evenodd" d="M 27,0 C 19.8,0 15.3,3.6 13.5,10.8 16.2,7.2 19.35,5.85 22.95,6.75 25.004,7.263 26.472,8.754 28.097,10.403 30.744,13.09 33.808,16.2 40.5,16.2 47.7,16.2 52.2,12.6 54,5.4 51.3,9 48.15,10.35 44.55,9.45 42.496,8.937 41.028,7.446 39.403,5.797 36.756,3.11 33.692,0 27,0 Z M 13.5,16.2 C 6.3,16.2 1.8,19.8 0,27 c 2.7,-3.6 5.85,-4.95 9.45,-4.05 2.054,0.514 3.522,2.004 5.147,3.653 2.647,2.687 5.711,5.797 12.403,5.797 7.2,0 11.7,-3.6 13.5,-10.8 -2.7,3.6 -5.85,4.95 -9.45,4.05 C 28.996,25.137 27.528,23.646 25.903,21.997 23.256,19.31 20.192,16.2 13.5,16.2 Z" clip-rule="evenodd" id="path1" />
  </g>
  <defs id="defs2">
    <linearGradient id="linearGradient2" inkscape:collect="always">
      <stop style="stop-color:black;stop-opacity:1;" offset="0" id="stop2" />
      <stop style="stop-color:black;stop-opacity:0;" offset="1" id="stop3" />
    </linearGradient>
    <clipPath id="prefix__clip0">
      <path fill="#fff" d="M0 0h54v32.4H0z" id="path2" />
    </clipPath>
    <linearGradient inkscape:collect="always" xlink:href="#linearGradient2" id="linearGradient3" x1="3.6765363" y1="11.337072" x2="15.692519" y2="11.337072" gradientUnits="userSpaceOnUse" gradientTransform="matrix(0.6896548,0,0,0.6896548,9.923383,21.650572)" />
  </defs>
  <path style="fill:red;stroke-width:0.0762968" d="m 26.853957,3.277768 a 11.44453,11.44453 0 1 0 0,22.889059 11.44453,11.44453 0 1 0 0,-22.889059 z m -5.677554,4.1278139 a 9.2646514,9.2646514 0 0 1 5.677554,-1.9479352 9.2646514,9.2646514 0 0 1 9.264653,9.2646503 9.2646514,9.2646514 0 0 1 -1.947935,5.677555 z M 32.531512,22.039013 a 9.2646514,9.2646514 0 0 1 -5.677555,1.947937 9.2646514,9.2646514 0 0 1 -9.26465,-9.264653 9.2646514,9.2646514 0 0 1 1.947935,-5.6775523 z" id="path1-6" />
  <path fill-rule="evenodd" clip-rule="evenodd" d="m 21.517725,28.610933 h -0.684349 v 1.316598 c 0,0.351166 0.231754,0.345633 0.684349,0.323656 v 0.532203 c -0.916256,0.10973 -1.280484,-0.142617 -1.280484,-0.855859 v -1.316598 h -0.507767 v -0.570624 h 0.507767 v -0.736755 l 0.596135,-0.175659 v 0.912414 h 0.684349 z m 2.608609,-0.570624 h 0.595982 v 2.743081 h -0.595982 v -0.394964 c -0.209777,0.290614 -0.53543,0.466273 -0.965895,0.466273 -0.750586,0 -1.374231,-0.630867 -1.374231,-1.442927 0,-0.817283 0.623645,-1.442772 1.374231,-1.442772 0.430465,0 0.756118,0.175505 0.965895,0.460894 z m -0.871995,2.249299 c 0.496702,0 0.871995,-0.367609 0.871995,-0.877836 0,-0.510225 -0.375293,-0.877681 -0.871995,-0.877681 -0.496702,0 -0.871995,0.367609 -0.871995,0.877681 0,0.510227 0.375293,0.877836 0.871995,0.877836 z M 25.71572,27.6289 c -0.209623,0 -0.380672,-0.175505 -0.380672,-0.37852 0.001,-0.209469 0.171201,-0.378692 0.380672,-0.37852 0.209531,-2.57e-4 0.37981,0.168991 0.380826,0.37852 0,0.202861 -0.171049,0.37852 -0.380826,0.37852 z m -0.29799,3.15449 v -2.743081 h 0.596134 v 2.743081 z m 1.286016,0 v -4.005123 h 0.595981 v 4.004969 h -0.595981 z m 4.464942,-2.743081 h 0.629176 l -0.866462,2.743081 h -0.58507 L 29.772327,28.934588 29.19279,30.78339 h -0.584917 l -0.866616,-2.743081 h 0.629177 l 0.53543,1.892602 0.579537,-1.892602 h 0.568473 l 0.573851,1.892602 z M 32.537385,27.6289 c -0.209777,0 -0.380826,-0.175505 -0.380826,-0.37852 10e-4,-0.209529 0.171295,-0.378777 0.380826,-0.37852 0.209531,-2.57e-4 0.37981,0.168991 0.380826,0.37852 0,0.202861 -0.171049,0.37852 -0.380826,0.37852 z m -0.29799,3.15449 v -2.743081 h 0.59598 V 30.78339 Z M 34.97679,27.969 c 0.618111,0 1.059641,0.416941 1.059641,1.130182 v 1.684054 H 35.44045 v -1.62381 c 0,-0.416941 -0.242818,-0.636246 -0.618111,-0.636246 -0.391891,0 -0.700947,0.23037 -0.700947,0.789928 v 1.470282 h -0.596135 v -2.743081 h 0.596135 v 0.351165 C 34.303506,28.106239 34.601497,27.969 34.97679,27.969 Z m 3.885404,-1.025831 h 0.596135 v 3.840067 h -0.596135 v -0.394964 c -0.209623,0.290768 -0.535276,0.466273 -0.965742,0.466273 -0.750585,0 -1.37423,-0.630867 -1.37423,-1.442926 0,-0.817284 0.623645,-1.442772 1.37423,-1.442772 0.430466,0 0.756119,0.175505 0.965742,0.460894 z m -0.871995,3.346439 c 0.496702,0 0.871995,-0.367609 0.871995,-0.877836 0,-0.510225 -0.375293,-0.877681 -0.871995,-0.877681 -0.496703,0 -0.871996,0.367609 -0.871996,0.877681 0,0.510227 0.375293,0.877836 0.871996,0.877836 z m 3.466005,0.565091 c -0.833422,0 -1.457066,-0.630867 -1.457066,-1.442927 0,-0.817283 0.623644,-1.442772 1.457066,-1.442772 0.540809,0 1.010001,0.279702 1.23069,0.707708 l -0.5133,0.296301 c -0.121409,-0.25788 -0.391737,-0.422474 -0.722924,-0.422474 -0.485636,0 -0.855397,0.367609 -0.855397,0.861237 0,0.493783 0.369761,0.861392 0.855397,0.861392 0.331187,0 0.601515,-0.170127 0.733989,-0.422474 l 0.5133,0.290768 c -0.231754,0.433385 -0.700946,0.713087 -1.241755,0.713087 z m 2.224094,-2.057349 c 0,0.499314 1.484729,0.197482 1.484729,1.212556 0,0.548647 -0.480259,0.844793 -1.07624,0.844793 -0.551874,0 -0.949298,-0.246968 -1.125879,-0.641932 l 0.5133,-0.296147 c 0.08821,0.246814 0.309055,0.394964 0.612579,0.394964 0.264949,0 0.469039,-0.08775 0.469039,-0.307365 0,-0.488096 -1.484574,-0.213772 -1.484574,-1.195805 0,-0.515759 0.447063,-0.839414 1.010002,-0.839414 0.452596,0 0.827889,0.208547 1.021068,0.570624 l -0.502235,0.279702 c -0.09943,-0.213926 -0.292612,-0.312744 -0.518833,-0.312744 -0.215309,0 -0.402956,0.09329 -0.402956,0.290768 z m 2.54437,0 c 0,0.499314 1.484574,0.197482 1.484574,1.212556 0,0.548647 -0.480104,0.844793 -1.076239,0.844793 -0.551874,0 -0.949144,-0.246968 -1.125879,-0.641932 l 0.5133,-0.296147 c 0.08837,0.246814 0.309056,0.394964 0.612579,0.394964 0.264949,0 0.469193,-0.08775 0.469193,-0.307365 0,-0.488096 -1.484574,-0.213772 -1.484574,-1.195805 0,-0.515759 0.446909,-0.839414 1.010002,-0.839414 0.452442,0 0.827735,0.208547 1.020914,0.570624 l -0.502235,0.279702 c -0.09928,-0.213926 -0.292458,-0.312744 -0.518679,-0.312744 -0.215309,0 -0.402956,0.09329 -0.402956,0.290768 z" fill="currentColor" id="path2-5" style="stroke-width:0.153682;fill:white;fill-opacity:1" sodipodi:nodetypes="ccsccsccccccccccccccsssccsssssscccscccccccccccccccccccccccccscccscccccssccssscccccscccccsssccssssscssccsssccccsssccssssccsssssccssssccss" />
  <path d="M 16.735129,28.71482 H 16.05078 v 1.316598 c 0,0.351166 0.231754,0.345633 0.684349,0.323656 v 0.532203 c -0.916256,0.10973 -1.280484,-0.142617 -1.280484,-0.855859 V 28.71482 h -0.507767 v -0.570624 h 0.507767 v -0.736755 l 0.596135,-0.175659 v 0.912414 h 0.684349 z" style="clip-rule:evenodd;fill:white;fill-rule:evenodd;stroke-width:0.153682;fill-opacity:1" id="path1-67" />
  <text xml:space="preserve" style="font-weight:bold;font-size:170px;font-family:'Peter Test';-inkscape-font-specification:'Peter Test Bold';text-align:center;text-anchor:middle;stroke:#c7d67b;stroke-width:1.37e-06;stroke-linejoin:bevel;paint-order:stroke markers fill" x="7.5446916" y="28.85313" id="text1"><tspan sodipodi:role="line" id="tspan1" x="7.5446916" y="28.85313" /></text>
  <path style="font-size:5.28174px;font-family:'Carmen Sans';-inkscape-font-specification:'Carmen Sans';text-align:center;text-anchor:middle;fill:white;stroke:#c7d67b;stroke-width:0.000000904498;stroke-linejoin:bevel;paint-order:stroke markers fill;fill-opacity:1" d="m 10.852184,29.236471 c 0,-0.839797 -0.454229,-1.309872 -1.1989548,-1.309872 -0.422539,0 -0.755289,0.205988 -0.919023,0.501765 v -0.42782 h -0.63909 v 2.815167 h 0.63909 v -1.478887 c 0,-0.248242 0.07394,-0.45423 0.221833,-0.612682 0.147889,-0.163734 0.33275,-0.24296 0.559865,-0.24296 0.459511,0 0.6971898,0.264087 0.6971898,0.797543 v 1.536986 h 0.63909 z m 0.586267,0.169015 c 0,0.850361 0.633809,1.484169 1.494732,1.484169 0.845079,0.01585 1.510578,-0.654935 1.494733,-1.484169 0.01585,-0.829233 -0.649654,-1.494732 -1.494733,-1.478887 -0.860923,0 -1.494732,0.639091 -1.494732,1.478887 z m 2.376783,0 c 0,0.522893 -0.359158,0.924305 -0.882051,0.924305 -0.522892,0 -0.887332,-0.401412 -0.887332,-0.924305 0,-0.51761 0.36444,-0.919022 0.887332,-0.919022 0.522893,0 0.882051,0.401412 0.882051,0.919022 z m 5.688419,-0.285214 h -1.94368 V 29.6907 h 1.94368 z" id="text2" aria-label="not-" sodipodi:nodetypes="sscccccscssccsscccssssssccccc" />
</svg>
