<svg xmlns="http://www.w3.org/2000/svg" fill="none" viewBox="0 0 54 33"><g clip-path="url(#a)" transform="matrix(.58902 0 0 .58902 10.345 7.038)"><path fill="#38bdf8" fill-rule="evenodd" d="M27 0Q16.2 0 13.5 10.8q4.05-5.4 9.45-4.05c2.054.513 3.522 2.004 5.147 3.653C30.744 13.09 33.808 16.2 40.5 16.2q10.8 0 13.5-10.8-4.05 5.4-9.45 4.05c-2.054-.513-3.522-2.004-5.147-3.653C36.756 3.11 33.692 0 27 0M13.5 16.2Q2.7 16.2 0 27q4.05-5.4 9.45-4.05c2.054.514 3.522 2.004 5.147 3.653C17.244 29.29 20.308 32.4 27 32.4q10.8 0 13.5-10.8-4.05 5.4-9.45 4.05c-2.054-.513-3.522-2.004-5.147-3.653C23.256 19.31 20.192 16.2 13.5 16.2" clip-rule="evenodd"/></g><defs><clipPath id="a"><path fill="#fff" d="M0 0h54v32.4H0z"/></clipPath></defs><path d="M26.854 3.278a11.445 11.445 0 1 0 0 22.889 11.445 11.445 0 1 0 0-22.89m-5.678 4.128a9.27 9.27 0 0 1 5.678-1.948 9.265 9.265 0 0 1 9.265 9.264A9.27 9.27 0 0 1 34.17 20.4zm11.356 14.633a9.27 9.27 0 0 1-5.678 1.948 9.265 9.265 0 0 1-9.265-9.265 9.27 9.27 0 0 1 1.948-5.677z" style="fill:red;stroke-width:.0762968"/><path fill="currentColor" fill-rule="evenodd" d="M21.518 28.61h-.685v1.318c0 .35.232.345.685.323v.532c-.917.11-1.28-.142-1.28-.855V28.61h-.509v-.57h.508v-.737l.596-.176v.912h.685zm2.608-.57h.596v2.743h-.596v-.395c-.21.291-.535.467-.966.467-.75 0-1.374-.631-1.374-1.443 0-.818.624-1.443 1.374-1.443.43 0 .757.176.966.46zm-.872 2.25a.85.85 0 0 0 .872-.878.85.85 0 0 0-.872-.878.85.85 0 0 0-.872.878c0 .51.376.878.872.878m2.462-2.661a.384.384 0 0 1-.381-.379.38.38 0 0 1 .762 0 .384.384 0 0 1-.381.379m-.298 3.154V28.04h.596v2.743zm1.286 0v-4.005h.596v4.005zm4.465-2.743h.629l-.867 2.743h-.585l-.574-1.848-.58 1.848h-.584l-.867-2.743h.63l.535 1.893.58-1.893h.568l.574 1.893zm1.368-.411a.384.384 0 0 1-.38-.379.38.38 0 0 1 .761 0 .384.384 0 0 1-.38.379m-.298 3.154V28.04h.596v2.743Zm2.738-2.814c.618 0 1.06.417 1.06 1.13v1.684h-.597V29.16c0-.417-.242-.636-.618-.636-.392 0-.7.23-.7.79v1.47h-.597V28.04h.596v.351c.183-.285.48-.422.856-.422m3.885-1.026h.596v3.84h-.596v-.395c-.21.291-.535.467-.966.467-.75 0-1.374-.631-1.374-1.443 0-.818.624-1.443 1.374-1.443.43 0 .757.175.966.46zm-.872 3.347a.85.85 0 0 0 .872-.878.85.85 0 0 0-.872-.878.85.85 0 0 0-.872.878c0 .51.375.878.872.878m3.466.565c-.833 0-1.457-.631-1.457-1.443 0-.818.624-1.443 1.457-1.443.541 0 1.01.28 1.23.708l-.512.296c-.122-.258-.392-.422-.723-.422a.84.84 0 0 0-.856.86c0 .495.37.862.856.862a.81.81 0 0 0 .734-.422l.513.29c-.232.434-.701.714-1.242.714zm2.224-2.058c0 .5 1.485.198 1.485 1.213 0 .549-.48.845-1.076.845-.552 0-.95-.247-1.126-.642l.513-.296c.088.246.31.395.613.395.265 0 .469-.088.469-.308 0-.488-1.485-.214-1.485-1.196 0-.515.447-.839 1.01-.839.453 0 .828.209 1.021.57l-.502.28c-.1-.214-.293-.312-.519-.312-.215 0-.403.093-.403.29m2.545 0c0 .5 1.484.198 1.484 1.213 0 .549-.48.845-1.076.845-.552 0-.95-.247-1.126-.642l.513-.296c.089.246.31.395.613.395.265 0 .47-.088.47-.308 0-.488-1.485-.214-1.485-1.196 0-.515.447-.839 1.01-.839.452 0 .827.209 1.02.57l-.502.28c-.099-.214-.292-.312-.518-.312-.216 0-.403.093-.403.29" clip-rule="evenodd" style="stroke-width:.153682"/><path d="M16.735 28.715h-.684v1.316c0 .352.232.346.684.324v.532c-.916.11-1.28-.142-1.28-.856v-1.316h-.508v-.57h.508v-.738l.596-.175v.912h.684z" style="clip-rule:evenodd;fill:currentColor;fill-rule:evenodd;stroke-width:.153682"/><text xml:space="preserve" x="7.545" y="28.853" style="font-weight:700;font-size:170px;font-family:&quot;Peter Test&quot;;-inkscape-font-specification:&quot;Peter Test Bold&quot;;text-align:center;text-anchor:middle;stroke:#c7d67b;stroke-width:1.37e-06;stroke-linejoin:bevel;paint-order:stroke markers fill"/><path d="M10.852 29.236c0-.84-.454-1.31-1.199-1.31-.422 0-.755.207-.919.502v-.427h-.639v2.815h.64v-1.48q0-.372.221-.612a.72.72 0 0 1 .56-.243c.46 0 .697.264.697.798v1.537h.64zm.586.17c0 .85.634 1.484 1.495 1.484a1.45 1.45 0 0 0 1.495-1.485 1.45 1.45 0 0 0-1.495-1.478c-.86 0-1.495.639-1.495 1.478zm2.377 0c0 .522-.359.924-.882.924s-.887-.402-.887-.925c0-.517.364-.919.887-.919s.882.402.882.92zm5.689-.286H17.56v.57h1.944z" aria-label="not-" style="font-size:5.28174px;font-family:&quot;Carmen Sans&quot;;-inkscape-font-specification:&quot;Carmen Sans&quot;;text-align:center;text-anchor:middle;fill:#000;stroke:#c7d67b;stroke-width:9.04498e-07;stroke-linejoin:bevel;paint-order:stroke markers fill"/></svg>